<svg width="199" height="67" viewBox="0 0 199 67" fill="none" xmlns="http://www.w3.org/2000/svg">
<path d="M140.227 22.5625V51H135.5V22.5625H140.227ZM147.473 22.5625V26.5469H128.332V22.5625H147.473ZM146.516 48.6172C146.516 47.862 146.757 47.2305 147.238 46.7227C147.733 46.2148 148.41 45.9609 149.27 45.9609C150.129 45.9609 150.799 46.2148 151.281 46.7227C151.776 47.2305 152.023 47.862 152.023 48.6172C152.023 49.3464 151.776 49.9648 151.281 50.4727C150.799 50.9805 150.129 51.2344 149.27 51.2344C148.41 51.2344 147.733 50.9805 147.238 50.4727C146.757 49.9648 146.516 49.3464 146.516 48.6172ZM162.609 22.5625V51H157.863V22.5625H162.609ZM168.078 48.6172C168.078 47.862 168.319 47.2305 168.801 46.7227C169.296 46.2148 169.973 45.9609 170.832 45.9609C171.691 45.9609 172.362 46.2148 172.844 46.7227C173.339 47.2305 173.586 47.862 173.586 48.6172C173.586 49.3464 173.339 49.9648 172.844 50.4727C172.362 50.9805 171.691 51.2344 170.832 51.2344C169.973 51.2344 169.296 50.9805 168.801 50.4727C168.319 49.9648 168.078 49.3464 168.078 48.6172ZM188.371 38.1875H182.57L182.551 34.5547H187.688C188.482 34.5547 189.159 34.3984 189.719 34.0859C190.279 33.7734 190.702 33.3177 190.988 32.7188C191.288 32.1198 191.438 31.3971 191.438 30.5508C191.438 29.6133 191.307 28.8516 191.047 28.2656C190.786 27.6667 190.376 27.2305 189.816 26.957C189.27 26.6836 188.566 26.5469 187.707 26.5469H183.977V51H179.23V22.5625H187.707C189.035 22.5625 190.22 22.7188 191.262 23.0312C192.316 23.3307 193.208 23.793 193.938 24.418C194.667 25.043 195.22 25.8438 195.598 26.8203C195.988 27.7839 196.184 28.9297 196.184 30.2578C196.184 31.4167 195.936 32.4844 195.441 33.4609C194.947 34.4245 194.211 35.2188 193.234 35.8438C192.271 36.4557 191.073 36.8203 189.641 36.9375L188.371 38.1875ZM188.195 51H181.008L183.195 47.0352H188.195C189.042 47.0352 189.738 46.8529 190.285 46.4883C190.832 46.1237 191.242 45.6159 191.516 44.9648C191.789 44.3138 191.926 43.5521 191.926 42.6797C191.926 41.7682 191.809 40.974 191.574 40.2969C191.34 39.6198 190.962 39.099 190.441 38.7344C189.921 38.3698 189.23 38.1875 188.371 38.1875H183.586L183.625 34.5547H189.738L190.832 35.9414C192.199 35.9674 193.312 36.306 194.172 36.957C195.031 37.5951 195.663 38.4219 196.066 39.4375C196.47 40.4531 196.672 41.5404 196.672 42.6992C196.672 44.5091 196.333 46.0326 195.656 47.2695C194.979 48.4935 194.009 49.4245 192.746 50.0625C191.496 50.6875 189.979 51 188.195 51Z" fill="#4B4B4B"/>
<circle cx="42.0169" cy="42.3955" r="24.6045" fill="#3971C6" fill-opacity="0.5"/>
<circle cx="42.0169" cy="42.3955" r="24.1045" stroke="#3971C6" stroke-opacity="0.82"/>
<circle cx="62.4576" cy="24.6045" r="24.6045" fill="#B5AF1B" fill-opacity="0.5"/>
<circle cx="62.4576" cy="24.6045" r="24.1045" stroke="#B5AF1B" stroke-opacity="0.82"/>
<circle cx="24.6045" cy="24.6045" r="24.6045" fill="#C62D2D" fill-opacity="0.5"/>
<circle cx="24.6045" cy="24.6045" r="24.1045" stroke="#C62D2D" stroke-opacity="0.82"/>
</svg>
